<?xml version="1.0" encoding="utf-8"?>
<!-- Generator: Adobe Illustrator 26.0.1, SVG Export Plug-In . SVG Version: 6.00 Build 0)  -->
<svg version="1.1" id="Layer_1" xmlns="http://www.w3.org/2000/svg" xmlns:xlink="http://www.w3.org/1999/xlink" x="0px" y="0px"
	 viewBox="0 0 660 573" style="enable-background:new 0 0 660 573;" xml:space="preserve">
<style type="text/css">
	.st0{fill:#FFFFFF;}
</style>
<g>
	<path class="st0" d="M619,71.6H31.8c-8.4,0-16.5,3.4-22.5,9.3C3.3,86.9,0,95,0,103.4c0,8.4,3.4,16.5,9.3,22.5
		c6,6,14.1,9.3,22.5,9.3H619c8.4,0,16.5-3.4,22.5-9.3c6-6,9.3-14.1,9.3-22.5c0-8.4-3.4-16.5-9.3-22.5
		C635.5,74.9,627.4,71.6,619,71.6z"/>
	<path class="st0" d="M619,262.5H31.8c-8.4,0-16.5,3.4-22.5,9.3c-6,6-9.3,14.1-9.3,22.5c0,8.4,3.4,16.5,9.3,22.5
		c6,6,14.1,9.3,22.5,9.3H619c8.4,0,16.5-3.4,22.5-9.3c6-6,9.3-14.1,9.3-22.5c0-8.4-3.4-16.5-9.3-22.5
		C635.5,265.9,627.4,262.5,619,262.5z"/>
	<path class="st0" d="M650.8,485.2c0-8.4-3.4-16.5-9.3-22.5c-6-6-14.1-9.3-22.5-9.3H31.8c-8.4,0-16.5,3.4-22.5,9.3
		c-6,6-9.3,14.1-9.3,22.5c0,8.4,3.4,16.5,9.3,22.5c6,6,14.1,9.3,22.5,9.3H619c8.4,0,16.5-3.4,22.5-9.3
		C647.4,501.8,650.8,493.7,650.8,485.2L650.8,485.2z"/>
</g>
</svg>
