<?xml version="1.0" encoding="utf-8"?>
<!-- Generator: Adobe Illustrator 26.0.1, SVG Export Plug-In . SVG Version: 6.00 Build 0)  -->
<svg version="1.1" id="Layer_1" xmlns="http://www.w3.org/2000/svg" xmlns:xlink="http://www.w3.org/1999/xlink" x="0px" y="0px"
	 viewBox="0 0 568 541" style="enable-background:new 0 0 568 541;" xml:space="preserve">
<style type="text/css">
	.st0{fill:none;stroke:#F65C00;stroke-width:22.4;stroke-linecap:round;stroke-miterlimit:56;}
	.st1{fill:#F65C00;}
</style>
<path class="st0" d="M138.2,82.2c23.7-28.3,58.8-45.1,96-45.6"/>
<path class="st0" d="M511.4,246.6c17.1,32.6,19.3,71.6,5.6,106.1"/>
<path class="st0" d="M168.8,497.6c-35.5-9.9-65.4-35-81.1-68.7"/>
<path class="st1" d="M389.9,106L215,81.8c-8.7-1.2-20.2,3.4-25.5,10.4L82,231.2c-5.4,6.9-2.6,13.6,6.1,14.8L263,270.2
	c8.7,1.2,20.2-3.4,25.6-10.4l107.4-139C401.4,113.8,398.7,107.2,389.9,106L389.9,106z M260,178.9c-7.1,9.2-22.3,15.4-33.9,13.8
	c-11.6-1.6-15.2-10.4-8.1-19.6c7.1-9.2,22.3-15.4,33.9-13.8C263.5,160.9,267.1,169.7,260,178.9L260,178.9z"/>
<path class="st1" d="M416.8,127.1c-3.3-8.1-10.4-9.1-15.8-2.1L292.5,264.4c-5.4,7-7.1,19.2-3.8,27.3l66.7,162.6
	c3.3,8.1,10.4,9.1,15.8,2.1L479.6,317c5.4-7,7.1-19.2,3.8-27.3L416.8,127.1z M342.2,303.4c-7.2,9.2-16.6,8-21-2.8s-2.2-27,5-36.3
	c7.2-9.3,16.6-8,21,2.8S349.4,294.2,342.2,303.4L342.2,303.4z M394.1,310.3c-7.2,9.2-16.6,8-21-2.8s-2.2-27,5-36.3s16.6-8,21,2.8
	S401.3,301.1,394.1,310.3L394.1,310.3z M446,317.2c-7.2,9.2-16.6,8-21-2.8s-2.2-27,5-36.3c7.2-9.2,16.6-8,21,2.8
	S453.2,308,446,317.2L446,317.2z"/>
<path class="st1" d="M262.3,276.9l-175-24.2c-8.7-1.2-13.2,4.4-9.9,12.6l65.7,163c3.3,8.1,13,15.7,21.8,17l175,24.2
	c8.7,1.2,13.1-4.4,9.9-12.6l-65.7-163C280.7,285.7,271,278.1,262.3,276.9L262.3,276.9z M191.1,425.8c-11.6-1.6-24.5-11.7-28.9-22.5
	s1.5-18.3,13.1-16.7c11.6,1.6,24.5,11.7,28.9,22.5C208.5,419.9,202.6,427.4,191.1,425.8L191.1,425.8z M150.1,325.1
	c-11.6-1.6-24.5-11.7-28.9-22.5s1.5-18.3,13.1-16.7c11.6,1.6,24.5,11.7,28.9,22.5C167.6,319.3,161.7,326.7,150.1,325.1L150.1,325.1z
	 M221.5,380.6c-11.6-1.6-24.5-11.7-28.9-22.5s1.5-18.3,13.1-16.7c11.6,1.6,24.5,11.7,28.9,22.5C239,374.8,233.1,382.2,221.5,380.6
	L221.5,380.6z M292.9,436.1c-11.6-1.6-24.5-11.7-28.9-22.5s1.5-18.3,13.1-16.6c11.6,1.6,24.5,11.7,28.9,22.5
	C310.3,430.2,304.5,437.7,292.9,436.1L292.9,436.1z M251.9,335.5c-11.6-1.6-24.5-11.7-28.9-22.5s1.5-18.3,13.1-16.7
	c11.6,1.6,24.6,11.7,28.9,22.5C269.4,329.6,263.5,337.1,251.9,335.5L251.9,335.5z"/>
</svg>
