<?xml version="1.0" encoding="utf-8"?>
<!-- Generator: Adobe Illustrator 26.0.1, SVG Export Plug-In . SVG Version: 6.00 Build 0)  -->
<svg version="1.1" id="Layer_1" xmlns="http://www.w3.org/2000/svg" xmlns:xlink="http://www.w3.org/1999/xlink" x="0px" y="0px"
	 viewBox="0 0 1200 1200" style="enable-background:new 0 0 1200 1200;" xml:space="preserve">
<style type="text/css">
	.st0{fill:#F65C00;}
</style>
<g>
	<path class="st0" d="M94.1,766.4C68.9,723.5,53.3,667.9,65,639.5c13.5-32.9,25.3,68.4,45.2,116.8c48.2-28.6,112.6-52.5,188.5-69.8
		c-11.4-35-34.5-93.6-26-98.5c7.7-4.3,34.9,41.6,52.4,92.8c18.8-3.8,38.3-7.2,58.3-10.2c-18.3-63.4-48.6-106.3-70.1-133.3
		c-40.7-51-102.8-37.4-161.3-28.4c-40,6.2-80.5,18-103.4,39.9c-60.9,58.2-65.4,167.2-8,265.6C53.7,797.4,71.8,781.3,94.1,766.4
		L94.1,766.4z"/>
	<path class="st0" d="M141.4,488.5c24.3-2.8,90-2.2,78.8-99.3c-3.7-32.4-40.8-69.2-97.5-62.6c-49.2,5.7-68.3,48.2-62.6,97.4
		C65.8,472.6,117.1,491.3,141.4,488.5z"/>
	<path class="st0" d="M494.7,391.3c5.7,48.6,57.1,67.1,81.4,64.2c24.3-2.9,90-2.4,78.5-99.5c-3.8-32.4-41-69-97.7-62.3
		C507.8,299.5,488.9,342.1,494.7,391.3L494.7,391.3z"/>
	<path class="st0" d="M1113.5,543.3c22.9,0.2,84,8.1,84.6-83.5c0.2-30.6-30.1-68.9-83.6-69.3c-46.4-0.3-69,37.1-69.3,83.6
		C1044.9,519.9,1090.6,543.1,1113.5,543.3z"/>
	<path class="st0" d="M693.1,659.3c0,0-5.3-88.9,13.2-110.3c42-48.7,108-141.7,91-278c-2.7-21.3-11.8-45.2-33.2-44.3
		c-21.4,1.2-28.1,21.9-26.8,43.2c5.4,93-24.6,161.3-54,192.4c-23.1,24.5-51.3,26.8-117.5,26.8c-40.9,0-74.6-14.5-100-43.2
		c-35.5-40-61.5-99-52.9-170.9c2.5-21.3-2.3-45.8-23.6-48.3c-21.2-2.4-37.3,17.9-37.9,39.3c-4.5,159,72,222.6,90,265.3
		c16.9,40.1,9.6,131,9.6,131c44.9-4.3,92-6.6,140.8-6.6C626.4,655.9,660.2,657.1,693.1,659.3L693.1,659.3z"/>
	<path class="st0" d="M529.2,205.8c1.9,5.3,6.9,8.6,12.2,8.6c1.4,0,2.9-0.3,4.3-0.7c6.7-2.4,10.3-9.8,7.9-16.5l-28.6-80.7
		c-2.4-6.7-9.8-10.3-16.5-7.9c-6.7,2.4-10.3,9.8-7.9,16.5L529.2,205.8z"/>
	<path class="st0" d="M479.4,235.4c2.5,2.7,6,4.1,9.4,4.1c3.2,0,6.4-1.2,8.9-3.5c5.2-4.9,5.4-13.1,0.5-18.3l-47.5-50.2
		c-4.9-5.2-13.1-5.4-18.3-0.5c-5.2,4.9-5.4,13.1-0.5,18.3L479.4,235.4z"/>
	<path class="st0" d="M668.9,247.6c3.8,0,7.7-1.7,10.2-5l40.5-52c4.4-5.6,3.4-13.8-2.3-18.1c-5.7-4.4-13.8-3.4-18.2,2.3l-40.4,52
		c-4.4,5.6-3.4,13.8,2.3,18.1C663.3,246.7,666.1,247.6,668.9,247.6L668.9,247.6z"/>
	<path class="st0" d="M603.7,215c0.8,0.1,1.5,0.2,2.3,0.2c6.2,0,11.6-4.4,12.7-10.7l16.8-95.7c1.2-7-3.5-13.8-10.5-15
		c-7.1-1.2-13.8,3.5-15,10.5L593.2,200C591.9,207,596.6,213.7,603.7,215L603.7,215z"/>
	<path class="st0" d="M597.2,917.2L597.2,917.2l-12.7,2.4l-35.8,6.8l33.5,47.3l53.6-38l-43.6-54.2l3,21.6l2.6,13.9L597.2,917.2z"/>
	<path class="st0" d="M528.2,905.8l41.6-7.8l-9.3-49.4l-2.6-14l-4.2-22.4L489,824.4l9.8,52l2.7,14.2l3.7,19.5l8.9-1.7L528.2,905.8z"
		/>
	<path class="st0" d="M277,833.5l66.9,56l-42.2,50.4l-66.9-56L277,833.5z"/>
	<path class="st0" d="M719,760.8l16.2,85.8l-64.6,12.2L654.4,773L719,760.8z"/>
	<path class="st0" d="M1128.1,859.7c-0.7,0.4-1.3,0.8-2.1,1.2c-30.4,17.1-68,28-111.7,32.3c-1.8,0.2-3.6,0.3-5.4,0.3
		c-27.4,0-60.3-24.2-63.5-56.7l-0.1-1l0-1c-0.3-26.4,23.3-45.8,60.3-49.5c14-1.4,26.5-3.4,38.1-6.1c-0.3-0.2-0.5-0.3-0.8-0.4
		c-17.9-9.3-61.8-27.6-94.4-40.8c-96.2-32.1-221.7-51.6-359.2-51.6c-302.3,0-547.4,94-547.4,210c0,116,245.1,210,547.4,210
		c302.3,0,547.4-94,547.4-210C1136.6,883.9,1133.6,871.6,1128.1,859.7L1128.1,859.7z M362.3,904.9l-42.2,50.4l-15.4,18.4l-18.4-15.4
		l-67-56l-18.4-15.4l15.4-18.4l42.1-50.4l15.4-18.4l18.4,15.4l67,56l18.4,15.4L362.3,904.9z M649.6,955.4l-53.6,38l-19.6,13.9
		l-13.9-19.6L529,940.3l-6.4-9l-4.1,0.7l-8.9,1.7l-23.6,4.4l-4.4-23.6l-3.7-19.5l-2.7-14.3l-9.8-52l-4.5-23.6l23.6-4.4l64.6-12.2
		l23.6-4.5l4.5,23.6l4.2,22.1l29.5,36.7l43.6,54.2l16,19.9L649.6,955.4z M651.5,886.9l-4.5-23.6l-16.2-85.8l-4.5-23.6l23.6-4.4
		l64.6-12.2l23.6-4.4l4.4,23.6l16.2,85.8l4.4,23.6l-23.6,4.4l-64.6,12.2L651.5,886.9z M840.7,999.3l-75.3,2.9l-24,0.9l-0.9-24
		l-2.2-56.6l-0.9-24l24-0.9l75.3-2.9l24-0.9l0.9,24l2.2,56.6l0.9,24L840.7,999.3z"/>
	<path class="st0" d="M837.5,918.6l2.2,56.6l-75.2,3l-2.2-56.6L837.5,918.6z"/>
	<path class="st0" d="M1199.9,652l-0.1-10.1c0-15.5-9.2-33-21-41.5c-23.5-16.9-78.8-29.7-116.3-29.7c-17.7,0-33.6,4.6-47.5,9.2
		c-33.6,11-78.2,6.7-83.2-8c-6.4-18.8-4-78.4,5.7-131.4c3.8-21.1,5.7-52.3-15.4-56.2c-21-3.8-41.3,10.1-45.2,31.2
		c-18.5,101-22.5,164.9-12,189.8c12.8,30.1,66.3,46.7,104.1,46.3c10.1-0.1-6.1,42.4-19.9,63.9c49.8,15.3,92.7,33.7,127.1,54.7
		c30.2-15.1,34.3-40.5,43.2-82.2c0.2-0.7,0.5-1.2,0.7-1.8c6.2-20.2,27.3-12.9,25.2,1.7c-3.5,24.6-7.4,47.7-19.1,67.2
		c-6.6,11-15.9,20.7-29,29c-3.9,2.4-8.1,4.7-12.7,6.9c-4.5,2.1-9.3,4.1-14.6,5.9c-3.8,1.3-7.8,2.5-12,3.7
		c-14.2,3.9-30.5,6.9-50.1,8.9c-21.3,2.1-38.8,11.2-38.6,25.3c2,20,26.3,36.9,42.4,34.8c43.5-4.3,76.8-14.9,102.6-29.4
		c1.5-0.8,2.9-1.7,4.3-2.5c3.8-2.3,7.4-4.6,10.8-7c3.5-2.5,7-5.1,10.2-7.7c58.1-48.4,60.6-121.2,60.3-163.6
		C1200,656.8,1199.9,654.3,1199.9,652L1199.9,652z"/>
</g>
</svg>
